<svg xmlns="http://www.w3.org/2000/svg" width="189" height="32.875" viewBox="0 0 189 32.875">
  <defs>
    <style>
      .cls-1 {
        fill: #fff;
        fill-rule: evenodd;
      }
    </style>
  </defs>
  <path id="logo" class="cls-1" d="M227.435,69.061l-19.843-14.6a1.756,1.756,0,0,0-1.877-.139,1.854,1.854,0,0,0-.98,1.648l0,9.035h-6.581a1.2,1.2,0,0,0,0,2.391h6.582v1.911H194.07a1.2,1.2,0,0,0,0,2.391h10.669v1.974h-6.583a1.2,1.2,0,0,0,0,2.391h6.583l0,9.081a1.861,1.861,0,0,0,.98,1.649,1.742,1.742,0,0,0,.826.206,1.762,1.762,0,0,0,1.051-.346l19.843-14.569a1.869,1.869,0,0,0,.755-1.5A1.917,1.917,0,0,0,227.435,69.061ZM208.446,81.677V76.064h3.575a1.2,1.2,0,0,0,0-2.391h-3.585L208.424,71.7h7.1a1.2,1.2,0,0,0,0-2.391h-7.115L208.4,67.4h3.624a1.2,1.2,0,0,0,0-2.391h-3.639l-0.034-5.441,14.938,10.988Zm40-10.679a8.333,8.333,0,0,0-1.761-1.424,22.22,22.22,0,0,0-2.465-1.3q-0.567-.258-1.274-0.547a7.849,7.849,0,0,1-1.293-.678,4.257,4.257,0,0,1-1.007-.9,1.67,1.67,0,0,1-.37-1.087,2.138,2.138,0,0,1,.165-0.8,2.549,2.549,0,0,1,.461-0.743,2.44,2.44,0,0,1,.71-0.541,2.6,2.6,0,0,1,1.89-.061,6.406,6.406,0,0,1,.924.366,7.354,7.354,0,0,1,.825.476c0.267,0.179.5,0.343,0.687,0.472a1.439,1.439,0,0,0,.7.323,2.028,2.028,0,0,0,.815-0.018,2.426,2.426,0,0,0,.778-0.326,2.031,2.031,0,0,0,.644-0.661,1.963,1.963,0,0,0,.13-1.746,3.815,3.815,0,0,0-1.214-1.579,7.34,7.34,0,0,0-2.158-1.166,8.882,8.882,0,0,0-2.8-.5l-0.206,0a8.44,8.44,0,0,0-2.456.366,7.321,7.321,0,0,0-2.353,1.2,6.15,6.15,0,0,0-.393,9.4,8.751,8.751,0,0,0,2.048,1.372,25.215,25.215,0,0,0,2.481,1.052,8.56,8.56,0,0,1,1.01.433,4.546,4.546,0,0,1,1,.675,4.018,4.018,0,0,1,.769.937,2.28,2.28,0,0,1,.3,1.185,3.127,3.127,0,0,1-.254,1.3,2.74,2.74,0,0,1-.674.938,3.057,3.057,0,0,1-.983.583,3.892,3.892,0,0,1-2.439.027,6.478,6.478,0,0,1-1.165-.474,9.1,9.1,0,0,1-1.058-.65c-0.345-.246-0.674-0.476-0.991-0.693a1.9,1.9,0,0,0-1.334-.317,1.748,1.748,0,0,0-1.243.9,1.838,1.838,0,0,0-.321,1.029,2.9,2.9,0,0,0,.225,1.177,3.866,3.866,0,0,0,.758,1.16,4.82,4.82,0,0,0,1.373,1,13.755,13.755,0,0,0,2.182.9,7.6,7.6,0,0,0,2.341.358c0.131,0,.263,0,0.392-0.009,2.622-.087,4.609-0.81,5.905-2.148a7.558,7.558,0,0,0,2.018-5.3,6.7,6.7,0,0,0-.28-2.209A4.793,4.793,0,0,0,248.449,71ZM268.4,58.768a2.22,2.22,0,0,0-1.816.652,2.07,2.07,0,0,0-.5,1.308V72.544a14.584,14.584,0,0,1-.182,2.439,4.3,4.3,0,0,1-.654,1.716,3.035,3.035,0,0,1-1.267,1.049,6.081,6.081,0,0,1-4.235-.015,3.079,3.079,0,0,1-1.284-1.079,4.782,4.782,0,0,1-.687-1.743,12.092,12.092,0,0,1-.213-2.367V60.728a1.96,1.96,0,0,0-.547-1.354,2.309,2.309,0,0,0-1.772-.606,2.238,2.238,0,0,0-1.778.644,2,2,0,0,0-.541,1.315v13.8a7.341,7.341,0,0,0,.8,3.513,7.67,7.67,0,0,0,2.059,2.458,8.744,8.744,0,0,0,2.855,1.454,11.2,11.2,0,0,0,3.215.475,11.322,11.322,0,0,0,3.248-.475,8.41,8.41,0,0,0,2.841-1.473,7.312,7.312,0,0,0,2.779-5.952v-13.8a1.96,1.96,0,0,0-.547-1.354A2.309,2.309,0,0,0,268.4,58.768ZM284.71,72.374l0.083-.017,0.631-.129a6.221,6.221,0,0,0,3.478-2.044,6.762,6.762,0,0,0,1.3-4.442,8.72,8.72,0,0,0-.5-3.162,4.825,4.825,0,0,0-1.529-2.091,6.131,6.131,0,0,0-2.486-1.092,16.041,16.041,0,0,0-3.319-.31h-4.709a9.332,9.332,0,0,0-1.369.083,1.945,1.945,0,0,0-.93.363,1.458,1.458,0,0,0-.492.8,4.6,4.6,0,0,0-.12,1.164V80.3a2.065,2.065,0,0,0,.5,1.307,2.133,2.133,0,0,0,1.753.652,2.423,2.423,0,0,0,1.8-.6,1.905,1.905,0,0,0,.585-1.361v-6.98l7.765,8.373a1.923,1.923,0,0,0,1.431.573c0.065,0,.132,0,0.2-0.008a2.555,2.555,0,0,0,1.682-.79,2.235,2.235,0,0,0,.678-1.691,2.471,2.471,0,0,0-.742-1.671Zm-5.326-3.994V63.326h2.982a7.462,7.462,0,0,1,1.276.107,2.834,2.834,0,0,1,1.02.375,1.827,1.827,0,0,1,.658.732,2.7,2.7,0,0,1,.247,1.234,2.334,2.334,0,0,1-.75,2.092,4.693,4.693,0,0,1-2.451.515h-2.982Zm27.39-9.293h-9.636a2.682,2.682,0,0,0-1.672.443,1.918,1.918,0,0,0-.616,1.612V80.655a1.524,1.524,0,0,0,.545,1.1,2.449,2.449,0,0,0,1.743.511,2.576,2.576,0,0,0,1.766-.5,1.493,1.493,0,0,0,.584-1.1V72.236h6.319a2.337,2.337,0,0,0,1.629-.475,2.058,2.058,0,0,0,.534-1.58,2.189,2.189,0,0,0-.543-1.6,2.442,2.442,0,0,0-1.62-.515h-6.319v-4.8h7.255a2.474,2.474,0,0,0,1.582-.462,1.9,1.9,0,0,0,.581-1.635,2.158,2.158,0,0,0-.585-1.606A2.279,2.279,0,0,0,306.774,59.087Zm13.594,1.2a2.147,2.147,0,0,0-.773-1.059,2.889,2.889,0,0,0-3.128,0,2.141,2.141,0,0,0-.77,1.051l-6.424,19.194a1.967,1.967,0,0,0,.219,2.169,2.446,2.446,0,0,0,1.741.622,2.368,2.368,0,0,0,1.662-.54,3.4,3.4,0,0,0,.856-1.344l1.3-3.48h5.932l1.424,3.644a3.429,3.429,0,0,0,.785,1.206,2.078,2.078,0,0,0,1.516.517l0.121,0a2.409,2.409,0,0,0,1.744-.641,1.942,1.942,0,0,0,.279-2.087Zm-4.342,12.406,2.006-6.613,2,6.613h-4.01Zm30.847,3.636a1.7,1.7,0,0,0-1.827.259q-0.4.317-.805,0.618a6.121,6.121,0,0,1-.863.533,5.615,5.615,0,0,1-1.1.41,6.648,6.648,0,0,1-1.459.2l-0.145,0A5.59,5.59,0,0,1,338,77.724a6.146,6.146,0,0,1-2.04-1.753,7.981,7.981,0,0,1-1.247-2.539,10.5,10.5,0,0,1-.424-2.964,11.363,11.363,0,0,1,.379-2.939,8.078,8.078,0,0,1,1.112-2.479,5.832,5.832,0,0,1,1.811-1.718,4.688,4.688,0,0,1,2.456-.645,5.11,5.11,0,0,1,2.081.374,10.8,10.8,0,0,1,1.5.808c0.442,0.291.848,0.537,1.206,0.731a1.47,1.47,0,0,0,1.328.049,2.144,2.144,0,0,0,.685-0.407,2,2,0,0,0,.412-0.475c0.044-.09.1-0.237,0.183-0.441a1.706,1.706,0,0,0,.063-0.85,2.711,2.711,0,0,0-.657-1.285,6.3,6.3,0,0,0-1.536-1.309,9.741,9.741,0,0,0-5.175-1.433,10.369,10.369,0,0,0-4.12.821,9.512,9.512,0,0,0-3.313,2.372,11.44,11.44,0,0,0-2.211,3.771,15.229,15.229,0,0,0-.844,5.051,14.115,14.115,0,0,0,.8,5.075,11,11,0,0,0,2.341,3.824,10.028,10.028,0,0,0,3.58,2.4,12.032,12.032,0,0,0,4.456.819,9.243,9.243,0,0,0,3.009-.463,9.487,9.487,0,0,0,2.268-1.106,6.393,6.393,0,0,0,1.471-1.342,2.884,2.884,0,0,0,.62-1.186,2.182,2.182,0,0,0-.216-1.223A1.991,1.991,0,0,0,346.873,76.328Zm16.718,1.442h-7.255V72.236h6.943a2.339,2.339,0,0,0,1.629-.475,2.062,2.062,0,0,0,.534-1.58,2.181,2.181,0,0,0-.526-1.6,2.266,2.266,0,0,0-1.637-.515h-6.943v-4.8h7.255a2.474,2.474,0,0,0,1.582-.462,1.906,1.906,0,0,0,.581-1.635,2.158,2.158,0,0,0-.585-1.606,2.284,2.284,0,0,0-1.548-.472h-9.635a2.682,2.682,0,0,0-1.672.443,1.918,1.918,0,0,0-.616,1.612V79.889a1.86,1.86,0,0,0,.659,1.637,2.829,2.829,0,0,0,1.629.418h9.605a3.047,3.047,0,0,0,1.858-.443,2.5,2.5,0,0,0,0-3.288A3.047,3.047,0,0,0,363.591,77.77Zm15.966-18.618h-3.119a1.306,1.306,0,0,0-1.162.578,3.306,3.306,0,0,0-.346,1.765,3.859,3.859,0,0,0,.258,1.747,1.12,1.12,0,0,0,1.063.532h1.236V80.719c0,0.7.392,1.544,2.257,1.544S382,81.424,382,80.719V61.111C382,60.217,381.576,59.152,379.557,59.152Z" transform="translate(-193 -54.125)"/>
</svg>
